<svg xmlns="http://www.w3.org/2000/svg" viewBox="0 0 1000 700">
  <!-- Background -->
  <rect width="1000" height="700" fill="#f8f9fa" />
  
  <!-- Title -->
  <text x="500" y="40" font-family="Arial" font-size="28" text-anchor="middle" font-weight="bold" fill="#009688">FastAPI Request Flow</text>
  
  <!-- FastAPI Header -->
  <rect x="200" y="70" width="600" height="50" rx="0" fill="#E0F2F1" stroke="#009688" stroke-width="2" stroke-dasharray="10,5" />
  <text x="500" y="102" font-family="Arial" font-size="18" text-anchor="middle" font-style="italic" fill="#009688">FastAPI Framework Components</text>
  
  <!-- Participant boxes at the top -->
  <rect x="50" y="140" width="100" height="60" rx="5" fill="#F5F5F5" stroke="#333333" stroke-width="2" />
  <text x="100" y="175" font-family="Arial" font-size="14" text-anchor="middle" font-weight="bold">Client</text>
  
  <rect x="200" y="140" width="100" height="60" rx="5" fill="#C8E6C9" stroke="#4CAF50" stroke-width="2" />
  <text x="250" y="175" font-family="Arial" font-size="14" text-anchor="middle" font-weight="bold">Router</text>
  
  <rect x="350" y="140" width="100" height="60" rx="5" fill="#C8E6C9" stroke="#4CAF50" stroke-width="2" />
  <text x="400" y="175" font-family="Arial" font-size="14" text-anchor="middle" font-weight="bold">Dependency</text>
  
  <rect x="500" y="140" width="100" height="60" rx="5" fill="#C8E6C9" stroke="#4CAF50" stroke-width="2" />
  <text x="550" y="175" font-family="Arial" font-size="14" text-anchor="middle" font-weight="bold">Pydantic</text>
  
  <rect x="650" y="140" width="100" height="60" rx="5" fill="#C8E6C9" stroke="#4CAF50" stroke-width="2" />
  <text x="700" y="175" font-family="Arial" font-size="14" text-anchor="middle" font-weight="bold">Endpoint</text>
  
  <rect x="800" y="140" width="150" height="60" rx="5" fill="#FFECB3" stroke="#FFC107" stroke-width="2" />
  <text x="875" y="175" font-family="Arial" font-size="14" text-anchor="middle" font-weight="bold">Database (Optional)</text>
  
  <!-- Lifelines (dashed vertical lines) -->
  <line x1="100" y1="200" x2="100" y2="650" stroke="#333" stroke-width="1" stroke-dasharray="5,5" />
  <line x1="250" y1="200" x2="250" y2="650" stroke="#333" stroke-width="1" stroke-dasharray="5,5" />
  <line x1="400" y1="200" x2="400" y2="650" stroke="#333" stroke-width="1" stroke-dasharray="5,5" />
  <line x1="550" y1="200" x2="550" y2="650" stroke="#333" stroke-width="1" stroke-dasharray="5,5" />
  <line x1="700" y1="200" x2="700" y2="650" stroke="#333" stroke-width="1" stroke-dasharray="5,5" />
  <line x1="875" y1="200" x2="875" y2="650" stroke="#333" stroke-width="1" stroke-dasharray="5,5" />
  
  <!-- Arrows with markers -->
  <defs>
    <marker id="arrowhead" markerWidth="10" markerHeight="7" refX="9" refY="3.5" orient="auto">
      <polygon points="0 0, 10 3.5, 0 7" fill="#333" />
    </marker>
  </defs>
  
  <!-- Step 1: Client to Router -->
  <line x1="100" y1="240" x2="250" y2="240" stroke="#333" stroke-width="2" marker-end="url(#arrowhead)" />
  <text x="175" y="230" font-family="Arial" font-size="12" text-anchor="middle" font-weight="bold">HTTP Request</text>
  
  <!-- Note 1 -->
  <rect x="120" y="250" width="110" height="30" rx="5" fill="#FFF9C4" stroke="#FFC107" stroke-width="1" />
  <text x="175" y="270" font-family="Arial" font-size="10" text-anchor="middle">GET /items/{id}</text>
  
  <!-- Step 2: Router to Dependency -->
  <line x1="250" y1="310" x2="400" y2="310" stroke="#333" stroke-width="2" marker-end="url(#arrowhead)" />
  <text x="325" y="300" font-family="Arial" font-size="12" text-anchor="middle" font-weight="bold">Route to handler</text>
  
  <!-- Note 2 -->
  <rect x="275" y="320" width="150" height="30" rx="5" fill="#FFF9C4" stroke="#FFC107" stroke-width="1" />
  <text x="350" y="340" font-family="Arial" font-size="10" text-anchor="middle">Match path &amp; HTTP method</text>
  
  <!-- Step 3: Dependency to Pydantic -->
  <line x1="400" y1="380" x2="550" y2="380" stroke="#333" stroke-width="2" marker-end="url(#arrowhead)" />
  <text x="475" y="370" font-family="Arial" font-size="12" text-anchor="middle" font-weight="bold">Resolve dependencies</text>
  
  <!-- Note 3 -->
  <rect x="410" y="390" width="130" height="30" rx="5" fill="#FFF9C4" stroke="#FFC107" stroke-width="1" />
  <text x="475" y="410" font-family="Arial" font-size="10" text-anchor="middle">Auth, DB connections</text>
  
  <!-- Step 4: Pydantic to Endpoint -->
  <line x1="550" y1="450" x2="700" y2="450" stroke="#333" stroke-width="2" marker-end="url(#arrowhead)" />
  <text x="625" y="440" font-family="Arial" font-size="12" text-anchor="middle" font-weight="bold">Validate request data</text>
  
  <!-- Note 4 -->
  <rect x="560" y="460" width="130" height="30" rx="5" fill="#FFF9C4" stroke="#FFC107" stroke-width="1" />
  <text x="625" y="480" font-family="Arial" font-size="10" text-anchor="middle">Convert to Python types</text>
  
  <!-- Step 5: Endpoint to Database (Optional) -->
  <line x1="700" y1="510" x2="875" y2="510" stroke="#333" stroke-width="2" stroke-dasharray="5,3" marker-end="url(#arrowhead)" />
  <text x="788" y="500" font-family="Arial" font-size="12" text-anchor="middle" font-weight="bold">Query data (optional)</text>
  
  <!-- Step 6: Database to Endpoint (Optional) -->
  <line x1="875" y1="540" x2="700" y2="540" stroke="#333" stroke-width="2" stroke-dasharray="5,3" marker-end="url(#arrowhead)" />
  <text x="788" y="560" font-family="Arial" font-size="12" text-anchor="middle" font-weight="bold">Return data</text>
  
  <!-- Step 7: Endpoint to Pydantic -->
  <line x1="700" y1="580" x2="550" y2="580" stroke="#333" stroke-width="2" marker-end="url(#arrowhead)" />
  <text x="625" y="570" font-family="Arial" font-size="12" text-anchor="middle" font-weight="bold">Return response</text>
  
  <!-- Step 8: Pydantic to Client -->
  <path d="M 550 610 Q 325 610 100 610" fill="none" stroke="#333" stroke-width="2" marker-end="url(#arrowhead)" />
  <text x="325" y="600" font-family="Arial" font-size="12" text-anchor="middle" font-weight="bold">JSON Response</text>
  
  <!-- Note 5 -->
  <rect x="240" y="620" width="170" height="30" rx="5" fill="#FFF9C4" stroke="#FFC107" stroke-width="1" />
  <text x="325" y="640" font-family="Arial" font-size="10" text-anchor="middle">Automatic serialization to JSON</text>
</svg>